<?xml version="1.0" encoding="utf-8"?>
<svg version="1.1" xmlns:xlink="http://www.w3.org/1999/xlink" width="21px" height="18px" xmlns="http://www.w3.org/2000/svg">
  <g transform="matrix(1 0 0 1 -20 -15 )">
    <path d="M 15.9140625 16.34625  C 16.0739182692308 16.20375  16.1538461538462 16.035  16.1538461538462 15.84  C 16.1538461538462 15.645  16.0739182692308 15.47625  15.9140625 15.33375  C 15.7542067307692 15.19125  15.5649038461538 15.12  15.3461538461538 15.12  C 15.1274038461538 15.12  14.9381009615385 15.19125  14.7782451923077 15.33375  C 14.6183894230769 15.47625  14.5384615384615 15.645  14.5384615384615 15.84  C 14.5384615384615 16.035  14.6183894230769 16.20375  14.7782451923077 16.34625  C 14.9381009615385 16.48875  15.1274038461538 16.56  15.3461538461538 16.56  C 15.5649038461538 16.56  15.7542067307692 16.48875  15.9140625 16.34625  Z M 19.1448317307692 16.34625  C 19.3046875 16.20375  19.3846153846154 16.035  19.3846153846154 15.84  C 19.3846153846154 15.645  19.3046875 15.47625  19.1448317307692 15.33375  C 18.9849759615385 15.19125  18.7956730769231 15.12  18.5769230769231 15.12  C 18.3581730769231 15.12  18.1688701923077 15.19125  18.0090144230769 15.33375  C 17.8491586538462 15.47625  17.7692307692308 15.645  17.7692307692308 15.84  C 17.7692307692308 16.035  17.8491586538462 16.20375  18.0090144230769 16.34625  C 18.1688701923077 16.48875  18.3581730769231 16.56  18.5769230769231 16.56  C 18.7956730769231 16.56  18.9849759615385 16.48875  19.1448317307692 16.34625  Z M 20.6466346153846 12.555  C 20.8822115384615 12.765  21 13.02  21 13.32  L 21 16.92  C 21 17.22  20.8822115384615 17.475  20.6466346153846 17.685  C 20.4110576923077 17.895  20.125 18  19.7884615384615 18  L 1.21153846153846 18  C 0.875 18  0.588942307692308 17.895  0.353365384615385 17.685  C 0.117788461538462 17.475  0 17.22  0 16.92  L 0 13.32  C 0 13.02  0.117788461538462 12.765  0.353365384615385 12.555  C 0.588942307692308 12.345  0.875 12.24  1.21153846153846 12.24  L 6.60036057692308 12.24  C 6.77704326923077 12.66  7.07361778846154 13.005  7.49008413461538 13.275  C 7.90655048076923 13.545  8.37139423076923 13.68  8.88461538461539 13.68  L 12.1153846153846 13.68  C 12.6286057692308 13.68  13.0934495192308 13.545  13.5099158653846 13.275  C 13.9263822115385 13.005  14.2229567307692 12.66  14.3996394230769 12.24  L 19.7884615384615 12.24  C 20.125 12.24  20.4110576923077 12.345  20.6466346153846 12.555  Z M 16.7217548076923 5.25375  C 16.9825721153846 5.47875  17.0414663461539 5.7375  16.8984375 6.03  C 16.7554086538462 6.33  16.5072115384615 6.48  16.1538461538462 6.48  L 12.9230769230769 6.48  L 12.9230769230769 11.52  C 12.9230769230769 11.715  12.8431490384615 11.88375  12.6832932692308 12.02625  C 12.5234375 12.16875  12.3341346153846 12.24  12.1153846153846 12.24  L 8.88461538461539 12.24  C 8.66586538461539 12.24  8.4765625 12.16875  8.31670673076923 12.02625  C 8.15685096153846 11.88375  8.07692307692308 11.715  8.07692307692308 11.52  L 8.07692307692308 6.48  L 4.84615384615385 6.48  C 4.49278846153846 6.48  4.24459134615385 6.33  4.1015625 6.03  C 3.95853365384615 5.7375  4.01742788461539 5.47875  4.27824519230769 5.25375  L 9.93209134615385 0.213749999999999  C 10.0835336538462 0.0712499999999991  10.2728365384615 0  10.5 0  C 10.7271634615385 0  10.9164663461538 0.0712499999999991  11.0679086538462 0.213749999999999  L 16.7217548076923 5.25375  Z " fill-rule="nonzero" fill="#000000" stroke="none" transform="matrix(1 0 0 1 20 15 )" />
  </g>
</svg>