<?xml version="1.0" encoding="utf-8"?>
<svg version="1.1" xmlns:xlink="http://www.w3.org/1999/xlink" width="17px" height="18px" xmlns="http://www.w3.org/2000/svg">
  <g transform="matrix(1 0 0 1 -166 -15 )">
    <path d="M 11.5048828125 8.12109375  C 12.3349609375 7.53515625  12.75 6.828125  12.75 6  C 12.75 5.171875  12.3349609375 4.46484375  11.5048828125 3.87890625  C 10.6748046875 3.29296875  9.67317708333333 3  8.5 3  C 7.32682291666667 3  6.3251953125 3.29296875  5.4951171875 3.87890625  C 4.6650390625 4.46484375  4.25 5.171875  4.25 6  C 4.25 6.828125  4.6650390625 7.53515625  5.4951171875 8.12109375  C 6.3251953125 8.70703125  7.32682291666667 9  8.5 9  C 9.67317708333333 9  10.6748046875 8.70703125  11.5048828125 8.12109375  Z M 14.509765625 1.7578125  C 16.169921875 2.9296875  17 4.34375  17 6  C 17 6.8515625  16.8173828125 7.55078125  16.4521484375 8.09765625  L 10.4091796875 17.16796875  C 10.2320963541667 17.42578125  9.96923828125 17.62890625  9.62060546875 17.77734375  C 9.27197265625 17.92578125  8.8984375 18  8.5 18  C 8.1015625 18  7.72802734375 17.92578125  7.37939453125 17.77734375  C 7.03076171875 17.62890625  6.7734375 17.42578125  6.607421875 17.16796875  L 0.5478515625 8.09765625  C 0.1826171875 7.55078125  0 6.8515625  0 6  C 0 4.34375  0.830078125 2.9296875  2.490234375 1.7578125  C 4.150390625 0.585937500000001  6.15364583333333 0  8.5 0  C 10.8463541666667 0  12.849609375 0.585937500000001  14.509765625 1.7578125  Z " fill-rule="nonzero" fill="#000000" stroke="none" transform="matrix(1 0 0 1 166 15 )" />
  </g>
</svg>