<?xml version="1.0" encoding="utf-8"?>
<svg version="1.1" xmlns:xlink="http://www.w3.org/1999/xlink" width="20px" height="18px" xmlns="http://www.w3.org/2000/svg">
  <g transform="matrix(1 0 0 1 -282 -15 )">
    <path d="M 3.42447916666667 9.17578125  L 6.70572916666667 9.17578125  L 6.70572916666667 10.67578125  L 3.42447916666667 10.67578125  L 3.42447916666667 9.17578125  Z M 3.42447916666667 6.1875  L 6.70572916666667 6.1875  L 6.70572916666667 7.67578125  L 3.42447916666667 7.67578125  L 3.42447916666667 6.1875  Z M 12.1354166666667 12.17578125  L 16.5755208333333 12.17578125  L 16.5755208333333 13.67578125  L 12.1354166666667 13.67578125  L 12.1354166666667 12.17578125  Z M 7.82552083333333 9.17578125  L 16.5755208333333 9.17578125  L 16.5755208333333 10.67578125  L 7.82552083333333 10.67578125  L 7.82552083333333 9.17578125  Z M 7.82552083333333 6.1875  L 16.5755208333333 6.1875  L 16.5755208333333 7.67578125  L 7.82552083333333 7.67578125  L 7.82552083333333 6.1875  Z M 18.2552083333333 16.4296875  C 18.3072916666667 16.3828125  18.3333333333333 16.328125  18 16.265625  L 18 1.734375  C 18.3333333333333 1.671875  18.3072916666667 1.6171875  18.2552083333333 1.5703125  C 18.203125 1.5234375  18.1423611111111 1.5  18.0729166666667 1.5  L 17.65625 1.5  L 12.734375 4.5  L 10 2.49609375  L 7.265625 4.5  L 2.34375 1.5  L 1.92708333333333 1.5  C 1.85763888888889 1.5  1.796875 1.5234375  1.74479166666667 1.5703125  C 1.69270833333333 1.6171875  1.66666666666667 1.671875  2 1.734375  L 2 16.265625  C 1.66666666666667 16.328125  1.69270833333333 16.3828125  1.74479166666667 16.4296875  C 1.796875 16.4765625  1.85763888888889 16.5  1.92708333333333 16.5  L 18.0729166666667 16.5  C 18.1423611111111 16.5  18.203125 16.4765625  18.2552083333333 16.4296875  Z M 4.32291666666667 1.5  L 7.20052083333333 3.2578125  L 9.609375 1.5  L 4.32291666666667 1.5  Z M 10.390625 1.5  L 12.7994791666667 3.2578125  L 15.6770833333333 1.5  L 10.390625 1.5  Z M 19.4401041666667 0.503906249999999  C 19.8133680555556 0.839843749999999  20 1.25  20 1.734375  L 20 16.265625  C 20 16.75  19.8133680555556 17.16015625  19.4401041666667 17.49609375  C 19.0668402777778 17.83203125  18.6111111111111 18  18.0729166666667 18  L 1.92708333333333 18  C 1.38888888888889 18  0.933159722222222 17.83203125  0.559895833333333 17.49609375  C 0.186631944444444 17.16015625  0 16.75  0 16.265625  L 0 1.734375  C 0 1.25  0.186631944444444 0.839843749999999  0.559895833333333 0.503906249999999  C 0.933159722222222 0.16796875  1.38888888888889 0  1.92708333333333 0  L 18.0729166666667 0  C 18.6111111111111 0  19.0668402777778 0.16796875  19.4401041666667 0.503906249999999  Z " fill-rule="nonzero" fill="#000000" stroke="none" transform="matrix(1 0 0 1 282 15 )" />
  </g>
</svg>