<?xml version="1.0" encoding="utf-8"?>
<svg version="1.1" xmlns:xlink="http://www.w3.org/1999/xlink" width="55px" height="50px" xmlns="http://www.w3.org/2000/svg">
  <defs>
    <filter x="362px" y="20px" width="55px" height="50px" filterUnits="userSpaceOnUse" id="filter19">
      <feOffset dx="0" dy="0" in="SourceAlpha" result="shadowOffsetInner" />
      <feGaussianBlur stdDeviation="5" in="shadowOffsetInner" result="shadowGaussian" />
      <feComposite in2="shadowGaussian" operator="atop" in="SourceAlpha" result="shadowComposite" />
      <feColorMatrix type="matrix" values="0 0 0 0 0.992156862745098  0 0 0 0 0.992156862745098  0 0 0 0 0.992156862745098  0 0 0 0.996078431372549 0  " in="shadowComposite" />
    </filter>
    <g id="widget20">
      <path d="M 14.2410714285714 27.43359375  C 14.2261904761905 27.51953125  14.2410714285714 27.625  14.2857142857143 27.75  C 14.2857142857143 27.8125  14.2931547619048 27.96875  14.3080357142857 28.21875  C 14.3229166666667 28.46875  14.3266369047619 28.67578125  14.3191964285714 28.83984375  C 14.311755952381 29.00390625  14.2894345238095 29.1875  14.2522321428571 29.390625  C 14.2150297619048 29.59375  14.140625 29.74609375  14.0290178571429 29.84765625  C 13.9174107142857 29.94921875  13.764880952381 30  13.5714285714286 30  L 6.42857142857143 30  C 4.6577380952381 30  3.14360119047619 29.33984375  1.88616071428571 28.01953125  C 0.628720238095238 26.69921875  0 25.109375  0 23.25  L 0 6.75  C 0 4.89062499999999  0.628720238095238 3.30078125  1.88616071428571 1.98046875  C 3.14360119047619 0.660156249999996  4.6577380952381 0  6.42857142857143 0  L 13.5714285714286 0  C 13.764880952381 0  13.9322916666667 0.0742187499999958  14.0736607142857 0.222656250000001  C 14.2150297619048 0.371093749999999  14.2857142857143 0.546874999999999  14.2857142857143 0.750000000000001  C 14.2857142857143 0.812499999999997  14.2931547619048 0.968749999999998  14.3080357142857 1.21875  C 14.3229166666667 1.46875  14.3266369047619 1.67578125  14.3191964285714 1.83984375  C 14.311755952381 2.00390625  14.2894345238095 2.1875  14.2522321428571 2.390625  C 14.2150297619048 2.59375  14.140625 2.74609375  14.0290178571429 2.84765625  C 13.9174107142857 2.94921875  13.764880952381 3  13.5714285714286 3  L 6.42857142857143 3  C 5.44642857142857 3  4.60565476190476 3.3671875  3.90625 4.1015625  C 3.20684523809524 4.8359375  2.85714285714286 5.71875  3 6.75  L 3 23.25  C 2.85714285714286 24.28125  3.20684523809524 25.1640625  3.90625 25.8984375  C 4.60565476190476 26.6328125  5.44642857142857 27  6.42857142857143 27  L 12.8571428571429 27  L 13.1026785714286 27  L 13.3928571428571 27  C 13.3928571428571 27  13.4784226190476 27.0078125  13.6495535714286 27.0234375  C 13.8206845238095 27.0390625  13.90625 27.0625  13.90625 27.09375  C 13.90625 27.125  13.9657738095238 27.16796875  14.0848214285714 27.22265625  C 14.203869047619 27.27734375  14.2559523809524 27.34765625  14.2410714285714 27.43359375  Z M 34.5758928571429 13.9453125  C 34.858630952381 14.2421875  35 14.59375  35 15  C 35 15.40625  34.858630952381 15.7578125  34.5758928571429 16.0546875  L 22.4330357142857 28.8046875  C 22.1502976190476 29.1015625  21.8154761904762 29.25  21.4285714285714 29.25  C 21.0416666666667 29.25  20.7068452380952 29.1015625  20.4241071428571 28.8046875  C 20.1413690476191 28.5078125  20 28.15625  20 27.75  L 20 21  L 10 21  C 9.61309523809524 21  9.27827380952381 20.8515625  8.99553571428572 20.5546875  C 8.71279761904762 20.2578125  8.57142857142857 19.90625  8.57142857142857 19.5  L 8.57142857142857 10.5  C 8.57142857142857 10.09375  8.71279761904762 9.7421875  8.99553571428572 9.4453125  C 9.27827380952381 9.1484375  9.61309523809524 9  10 9  L 20 9  L 20 2.25  C 20 1.84375  20.1413690476191 1.4921875  20.4241071428571 1.1953125  C 20.7068452380952 0.898437499999999  21.0416666666667 0.750000000000001  21.4285714285714 0.750000000000001  C 21.8154761904762 0.750000000000001  22.1502976190476 0.898437499999999  22.4330357142857 1.1953125  L 34.5758928571429 13.9453125  Z " fill-rule="nonzero" fill="#000000" stroke="none" transform="matrix(1 0 0 1 372 30 )" />
    </g>
  </defs>
  <g transform="matrix(1 0 0 1 -362 -20 )">
    <use xlink:href="#widget20" filter="url(#filter19)" />
    <use xlink:href="#widget20" />
  </g>
</svg>