<?xml version="1.0" encoding="utf-8"?>
<svg version="1.1" xmlns:xlink="http://www.w3.org/1999/xlink" width="18px" height="16px" xmlns="http://www.w3.org/2000/svg">
  <defs>
    <mask fill="white" id="clip46">
      <path d="M 18 6.85714285714286  L 18 9.14285714285714  L 10.2857142857143 9.14285714285714  L 10.2857142857143 16  L 7.71428571428571 16  L 7.71428571428571 9.14285714285714  L 0 9.14285714285714  L 0 6.85714285714286  L 7.71428571428571 6.85714285714286  L 7.71428571428571 0  L 10.2857142857143 0  L 10.2857142857143 6.85714285714286  L 18 6.85714285714286  Z " fill-rule="evenodd" />
    </mask>
  </defs>
  <g transform="matrix(1 0 0 1 -371 -504 )">
    <path d="M 18 6.85714285714286  L 18 9.14285714285714  L 10.2857142857143 9.14285714285714  L 10.2857142857143 16  L 7.71428571428571 16  L 7.71428571428571 9.14285714285714  L 0 9.14285714285714  L 0 6.85714285714286  L 7.71428571428571 6.85714285714286  L 7.71428571428571 0  L 10.2857142857143 0  L 10.2857142857143 6.85714285714286  L 18 6.85714285714286  Z " fill-rule="nonzero" fill="#999999" stroke="none" transform="matrix(1 0 0 1 371 504 )" />
    <path d="M 18 6.85714285714286  L 18 9.14285714285714  L 10.2857142857143 9.14285714285714  L 10.2857142857143 16  L 7.71428571428571 16  L 7.71428571428571 9.14285714285714  L 0 9.14285714285714  L 0 6.85714285714286  L 7.71428571428571 6.85714285714286  L 7.71428571428571 0  L 10.2857142857143 0  L 10.2857142857143 6.85714285714286  L 18 6.85714285714286  Z " stroke-width="2" stroke="#464545" fill="none" transform="matrix(1 0 0 1 371 504 )" mask="url(#clip46)" />
  </g>
</svg>