<?xml version="1.0" encoding="utf-8"?>
<svg version="1.1" xmlns:xlink="http://www.w3.org/1999/xlink" width="19px" height="19px" xmlns="http://www.w3.org/2000/svg">
  <g transform="matrix(1 0 0 1 -223 -8 )">
    <path d="M 19 4.22222222222222  L 14.7777777777778 0  L 2.11111111111111 0  C 0.944722222222222 0  0 0.944722222222222  0 2.11111111111111  L 0 16.8888888888889  C 0 18.0552777777778  0.944722222222222 19  2.11111111111111 19  L 16.8888888888889 19  C 18.0552777777778 19  19 18.0552777777778  19 16.8888888888889  L 19 4.22222222222222  Z M 12.6666666666667 13.7222222222222  C 12.6666666666667 15.4691666666667  11.2469444444444 16.8888888888889  9.5 16.8888888888889  C 7.75305555555556 16.8888888888889  6.33333333333333 15.4691666666667  6.33333333333333 13.7222222222222  C 6.33333333333333 11.9752777777778  7.75305555555556 10.5555555555556  9.5 10.5555555555556  C 11.2469444444444 10.5555555555556  12.6666666666667 11.9752777777778  12.6666666666667 13.7222222222222  Z M 12.6666666666667 2.11111111111111  L 12.6666666666667 6.33333333333333  L 2.11111111111111 6.33333333333333  L 2.11111111111111 2.11111111111111  L 12.6666666666667 2.11111111111111  Z " fill-rule="nonzero" fill="#000000" stroke="none" transform="matrix(1 0 0 1 223 8 )" />
  </g>
</svg>