<?xml version="1.0" encoding="utf-8"?>
<svg version="1.1" xmlns:xlink="http://www.w3.org/1999/xlink" width="19px" height="19px" xmlns="http://www.w3.org/2000/svg">
  <g transform="matrix(1 0 0 1 -90 -8 )">
    <path d="M 18.7649739583333 0.235026041666666  C 18.9216579861111 0.391710069444442  19 0.577256944444442  19 0.791666666666666  L 19 18.2083333333333  C 19 18.4227430555556  18.9216579861111 18.6082899305556  18.7649739583333 18.7649739583333  C 18.6082899305556 18.9216579861111  18.4227430555556 19  18.2083333333333 19  L 11.875 19  C 11.6605902777778 19  11.4750434027778 18.9216579861111  11.318359375 18.7649739583333  C 11.1616753472222 18.6082899305556  11.0833333333333 18.4227430555556  11 18.2083333333333  L 11 0.791666666666666  C 11.0833333333333 0.577256944444442  11.1616753472222 0.391710069444442  11.318359375 0.235026041666666  C 11.4750434027778 0.078342013888888  11.6605902777778 0  11.875 0  L 18.2083333333333 0  C 18.4227430555556 0  18.6082899305556 0.078342013888888  18.7649739583333 0.235026041666666  Z M 7.681640625 0.235026041666666  C 7.83832465277778 0.391710069444442  7.91666666666667 0.577256944444442  8 0.791666666666666  L 8 18.2083333333333  C 7.91666666666667 18.4227430555556  7.83832465277778 18.6082899305556  7.681640625 18.7649739583333  C 7.52495659722222 18.9216579861111  7.33940972222222 19  7.125 19  L 0.791666666666667 19  C 0.577256944444445 19  0.391710069444444 18.9216579861111  0.235026041666667 18.7649739583333  C 0.0783420138888889 18.6082899305556  0 18.4227430555556  0 18.2083333333333  L 0 0.791666666666666  C 0 0.577256944444442  0.0783420138888889 0.391710069444442  0.235026041666667 0.235026041666666  C 0.391710069444444 0.078342013888888  0.577256944444445 0  0.791666666666667 0  L 7.125 0  C 7.33940972222222 0  7.52495659722222 0.078342013888888  7.681640625 0.235026041666666  Z " fill-rule="nonzero" fill="#000000" stroke="none" transform="matrix(1 0 0 1 90 8 )" />
  </g>
</svg>