<?xml version="1.0" encoding="utf-8"?>
<svg version="1.1" xmlns:xlink="http://www.w3.org/1999/xlink" width="19px" height="19px" xmlns="http://www.w3.org/2000/svg">
  <g transform="matrix(1 0 0 1 -156 -8 )">
    <path d="M 18.7649739583333 0.235026041666666  C 18.9216579861111 0.391710069444442  19 0.577256944444442  19 0.791666666666666  L 19 18.2083333333333  C 19 18.4227430555556  18.9216579861111 18.6082899305556  18.7649739583333 18.7649739583333  C 18.6082899305556 18.9216579861111  18.4227430555556 19  18.2083333333333 19  L 0.791666666666667 19  C 0.577256944444445 19  0.391710069444444 18.9216579861111  0.235026041666667 18.7649739583333  C 0.0783420138888889 18.6082899305556  0 18.4227430555556  0 18.2083333333333  L 0 0.791666666666666  C 0 0.577256944444442  0.0783420138888889 0.391710069444442  0.235026041666667 0.235026041666666  C 0.391710069444444 0.078342013888888  0.577256944444445 0  0.791666666666667 0  L 18.2083333333333 0  C 18.4227430555556 0  18.6082899305556 0.078342013888888  18.7649739583333 0.235026041666666  Z " fill-rule="nonzero" fill="#000000" stroke="none" transform="matrix(1 0 0 1 156 8 )" />
  </g>
</svg>